<svg xmlns="http://www.w3.org/2000/svg" version="1.1" xmlns:xlink="http://www.w3.org/1999/xlink" xmlns:svgjs="http://svgjs.com/svgjs" viewBox="0 0 140 140"><g transform="matrix(10,0,0,10,0,0)"><path d="M5.5,12.5a2.715,2.715,0,0,0,0-4,2.715,2.715,0,0,0-4,0c-1,1-1,5-1,5S4.5,13.5,5.5,12.5Z" fill="none" stroke="#000000" stroke-linecap="round" stroke-linejoin="round"></path><path d="M12.916,1.084a1.992,1.992,0,0,0-2.64-.158L4.5,5,3.787,7.638A2.882,2.882,0,0,1,5.5,8.5a2.882,2.882,0,0,1,.862,1.713L9,9.5l4.074-5.776A1.992,1.992,0,0,0,12.916,1.084Z" fill="none" stroke="#000000" stroke-linecap="round" stroke-linejoin="round"></path><path d="M0.5 13.5L3.75 10.25" fill="none" stroke="#000000" stroke-linecap="round" stroke-linejoin="round"></path></g></svg>