<svg xmlns="http://www.w3.org/2000/svg" version="1.1" xmlns:xlink="http://www.w3.org/1999/xlink" xmlns:svgjs="http://svgjs.com/svgjs" viewBox="0 0 140 140"><g transform="matrix(5.833333333333333,0,0,5.833333333333333,0,0)"><path d="M3.5,18.5V23a.5.5,0,0,0,.5.5H14a.5.5,0,0,0,.5-.5V18.5" fill="none" stroke="#000000" stroke-linecap="round" stroke-linejoin="round"></path><path d="M0.5 18L9 8.5 17.5 18" fill="none" stroke="#000000" stroke-linecap="round" stroke-linejoin="round"></path><path d="M7.500 13.500 L10.500 13.500 L10.500 16.500 L7.500 16.500 Z" fill="none" stroke="#000000" stroke-linecap="round" stroke-linejoin="round"></path><path d="M10.5 0.5L21.5 0.5" fill="none" stroke="#000000" stroke-linecap="round" stroke-linejoin="round"></path><path d="M12.5 2.5L22.5 2.5" fill="none" stroke="#000000" stroke-linecap="round" stroke-linejoin="round"></path><path d="M14.5 4.5L23.5 4.5" fill="none" stroke="#000000" stroke-linecap="round" stroke-linejoin="round"></path><path d="M11.5 6.5L21.5 6.5" fill="none" stroke="#000000" stroke-linecap="round" stroke-linejoin="round"></path><path d="M12.5 8.5L19.5 8.5" fill="none" stroke="#000000" stroke-linecap="round" stroke-linejoin="round"></path><path d="M15.5 10.5L21.5 10.5" fill="none" stroke="#000000" stroke-linecap="round" stroke-linejoin="round"></path><path d="M17.5 12.5L22.5 12.5" fill="none" stroke="#000000" stroke-linecap="round" stroke-linejoin="round"></path><path d="M19.5 14.5L21.5 14.5" fill="none" stroke="#000000" stroke-linecap="round" stroke-linejoin="round"></path><path d="M20 16.5L21 16.5" fill="none" stroke="#000000" stroke-linecap="round" stroke-linejoin="round"></path></g></svg>
