<svg xmlns="http://www.w3.org/2000/svg" version="1.1" xmlns:xlink="http://www.w3.org/1999/xlink" xmlns:svgjs="http://svgjs.com/svgjs" viewBox="0 0 140 140"><g transform="matrix(10,0,0,10,0,0)"><path d="M0.500 2.000 A1.500 1.500 0 1 0 3.500 2.000 A1.500 1.500 0 1 0 0.500 2.000 Z" fill="none" stroke="#000000" stroke-linecap="round" stroke-linejoin="round"></path><path d="M3.5 2L13.5 2" fill="none" stroke="#000000" stroke-linecap="round" stroke-linejoin="round"></path><path d="M5.500 7.000 A1.500 1.500 0 1 0 8.500 7.000 A1.500 1.500 0 1 0 5.500 7.000 Z" fill="none" stroke="#000000" stroke-linecap="round" stroke-linejoin="round"></path><path d="M0.5 7L5.5 7" fill="none" stroke="#000000" stroke-linecap="round" stroke-linejoin="round"></path><path d="M8.5 7L13.5 7" fill="none" stroke="#000000" stroke-linecap="round" stroke-linejoin="round"></path><path d="M10.500 12.000 A1.500 1.500 0 1 0 13.500 12.000 A1.500 1.500 0 1 0 10.500 12.000 Z" fill="none" stroke="#000000" stroke-linecap="round" stroke-linejoin="round"></path><path d="M10.5 12L0.5 12" fill="none" stroke="#000000" stroke-linecap="round" stroke-linejoin="round"></path></g></svg>
