<svg xmlns="http://www.w3.org/2000/svg" version="1.1" xmlns:xlink="http://www.w3.org/1999/xlink" xmlns:svgjs="http://svgjs.com/svgjs" viewBox="0 0 140 140"><g transform="matrix(10,0,0,10,0,0)"><path d="M0.500 4.500 A1.500 1.500 0 1 0 3.500 4.500 A1.500 1.500 0 1 0 0.500 4.500 Z" fill="none" stroke="#000000" stroke-linecap="round" stroke-linejoin="round"></path><path d="M2 6L2 13.5" fill="none" stroke="#000000" stroke-linecap="round" stroke-linejoin="round"></path><path d="M2 0.5L2 3" fill="none" stroke="#000000" stroke-linecap="round" stroke-linejoin="round"></path><path d="M10.500 4.500 A1.500 1.500 0 1 0 13.500 4.500 A1.500 1.500 0 1 0 10.500 4.500 Z" fill="none" stroke="#000000" stroke-linecap="round" stroke-linejoin="round"></path><path d="M12 3L12 0.5" fill="none" stroke="#000000" stroke-linecap="round" stroke-linejoin="round"></path><path d="M12 13.5L12 6" fill="none" stroke="#000000" stroke-linecap="round" stroke-linejoin="round"></path><path d="M5.500 7.000 A1.500 1.500 0 1 0 8.500 7.000 A1.500 1.500 0 1 0 5.500 7.000 Z" fill="none" stroke="#000000" stroke-linecap="round" stroke-linejoin="round"></path><path d="M7 0.5L7 5.5" fill="none" stroke="#000000" stroke-linecap="round" stroke-linejoin="round"></path><path d="M7 8.5L7 13.5" fill="none" stroke="#000000" stroke-linecap="round" stroke-linejoin="round"></path></g></svg>
