<svg xmlns="http://www.w3.org/2000/svg" viewBox="0 0 637.49 420.89"><title>logo-ops-noir</title><g id="Calque_2" data-name="Calque 2"><g id="Layer_1" data-name="Layer 1"><polygon points="165.64 359.7 172.18 353.17 26.15 207.14 165.64 67.65 305.13 207.14 159.1 353.17 165.64 359.7 172.18 353.17 165.64 359.7 172.18 366.24 346.5 191.92 321.88 197.74 165.64 41.5 0 207.14 165.64 372.78 172.18 366.24 165.64 359.7"/><polygon points="407.9 200.6 213.76 394.74 19.61 200.6 6.54 213.68 213.76 420.89 420.98 213.68 407.9 200.6 407.9 200.6"/><path d="M470.18,41.5,304.54,207.14l12.11,12.11c-.11-6.9,3.13-13.33,11.44-17.06a14.38,14.38,0,0,1,8.67-1.13L470.18,67.65,609.67,207.14,470.18,346.63l-96.51-96.5a14.88,14.88,0,0,1-1.92,4.26c-2.92,4.44-7.38,6.6-12.22,7.74L470.18,372.78l6.54-6.54,159.1-159.1Z"/><polygon points="470.18 359.7 476.72 353.17 379.1 255.55 470.18 164.47 561.26 255.55 463.64 353.17 470.18 359.7 476.72 353.17 470.18 359.7 476.72 366.24 587.4 255.55 470.18 138.32 352.95 255.55 470.18 372.78 476.72 366.24 470.18 359.7"/><polygon points="164.99 292.01 159.1 297.89 165.64 304.43 172.18 297.89 166.29 292.01 153.22 305.08 165.64 317.5 178.06 305.08 164.99 292.01 164.99 292.01"/><path d="M78.28,204,65.71,191.42,52.63,204.49l12.58,12.58Zm25.15,25.15L90.86,216.57,77.78,229.64l12.57,12.57Zm25.15,25.15L116,241.71l-13.07,13.08,12.57,12.57Zm25.14,25.14-12.57-12.57-13.08,13.07,12.58,12.58Z"/><polygon points="53.14 178.85 47.25 172.96 40.71 179.5 47.25 186.04 53.13 180.15 40.06 167.08 27.64 179.5 40.06 191.92 53.14 178.85 53.14 178.85"/><path d="M141.15,92.14l12.57-12.57L140.65,66.49,128.07,79.07ZM116,117.29l12.57-12.58L115.5,91.64l-12.57,12.57ZM90.85,142.43l12.58-12.57L90.35,116.79,77.78,129.36ZM65.71,167.58,78.28,155,65.21,141.93,52.63,154.5Z"/><polygon points="166.29 66.99 172.18 61.11 165.64 54.57 159.1 61.11 164.99 66.99 178.06 53.92 165.64 41.5 153.22 53.92 166.29 66.99 166.29 66.99"/><path d="M253,155l12.57,12.57,13.08-13.07-12.57-12.58Zm-25.15-25.15,12.58,12.57,13.07-13.07-12.57-12.57Zm-25.14-25.15,12.57,12.58,13.08-13.08L215.78,91.64ZM177.56,79.57l12.57,12.57,13.08-13.07L190.64,66.49Z"/><polygon points="278.15 180.15 284.03 186.04 290.57 179.5 284.03 172.96 278.15 178.85 291.22 191.92 303.64 179.5 291.22 167.08 278.15 180.16 278.15 180.15"/><path d="M190.13,266.86l-12.57,12.57,13.08,13.08,12.57-12.58Zm25.15-25.15-12.57,12.58,13.07,13.07,12.58-12.57Zm25.15-25.14-12.58,12.57,13.08,13.07,12.57-12.57Zm25.14-25.15L253,204l13.08,13.08,12.57-12.58Z"/><path d="M463.78,353l-.14.14,13.08,13.07.13-.13Zm23.53-23.54-11.77,11.77,13.08,13.08,11.77-11.77ZM510.85,306l-11.77,11.77,13.08,13.07L523.92,319Zm23.53-23.54-11.76,11.77,13.07,13.08,11.77-11.77Zm23.54-23.53-11.77,11.77,13.08,13.07L571,272Zm23.53-23.54-11.76,11.77,13.07,13.08,11.77-11.77ZM605,211.82l-11.77,11.77,13.08,13.07,11.76-11.77Zm7.66-57.53,11.77,11.77L637.49,153l-11.76-11.77Zm-23.53-23.54,11.76,11.77L614,129.44l-11.77-11.76Zm-23.54-23.53L577.35,119l13.07-13.07L578.66,94.14ZM542.05,83.68l11.76,11.77,13.08-13.08L555.12,70.61ZM518.51,60.15l11.77,11.76,13.07-13.07L531.59,47.07ZM495,36.61l11.76,11.77L519.82,35.3,508.05,23.54ZM471.44,13.08l11.77,11.76,13.07-13.07L484.52,0Zm-34,31.47,11.77-11.77L436.14,19.7,424.37,31.47ZM413.91,68.08l11.77-11.77L412.6,43.24,400.83,55ZM390.37,91.62l11.77-11.77L389.07,66.77,377.3,78.54Zm-23.53,23.53,11.77-11.76L365.53,90.31l-11.77,11.77ZM343.3,138.69l11.77-11.77L342,113.85l-11.77,11.76Zm-23.53,23.53,11.77-11.76-13.08-13.08-11.77,11.77Zm-23.54,23.54L308,174l-13.07-13.07-11.77,11.76Z"/></g></g></svg>